<svg width="24" height="24" viewBox="0 0 24 24" fill="none" xmlns="http://www.w3.org/2000/svg">
<path d="M11.6445 19.3394H21.8137C21.9369 19.3916 22.0451 19.4737 22.1285 19.5783C22.2119 19.6829 22.268 19.8067 22.2915 19.9383V21.1744C22.2915 21.4243 21.9408 21.4843 21.8137 21.4843H11.6445C11.5174 21.4843 11.5668 21.4243 11.5668 21.1744V19.9383C11.5668 19.689 11.5174 19.3394 11.6445 19.3394Z" stroke="black" stroke-width="0.640001" stroke-linecap="round" stroke-linejoin="round"/>
<path d="M10.2287 21.4843H23.2293C23.3901 21.4843 23.3638 21.8248 23.3638 22.0694V23.2796C23.3638 23.5242 23.3917 23.6293 23.2293 23.6293H10.2287C10.0678 23.6293 9.9579 23.522 9.9579 23.2796V22.0694C9.9579 21.8275 10.0657 21.4843 10.2287 21.4843Z" stroke="black" stroke-width="0.640001" stroke-linecap="round" stroke-linejoin="round"/>
<path d="M5.2134 7.60707L12.5035 0.316968C12.5947 0.225809 12.8253 0.305707 13.013 0.49607L13.9551 1.43823C14.145 1.62806 14.2233 1.85649 14.1342 1.94765L6.84139 9.24044C6.75023 9.3316 6.52235 9.25116 6.33199 9.06134L5.38981 8.11917C5.20266 7.92613 5.12224 7.69823 5.2134 7.60707Z" stroke="black" stroke-width="0.640001" stroke-linecap="round" stroke-linejoin="round"/>
<path d="M12.6944 15.088L19.9845 7.7979C20.0757 7.70674 20.3063 7.78664 20.494 7.977L21.4362 8.91917C21.626 9.10899 21.7043 9.33743 21.6152 9.42859L14.3224 16.7214C14.2313 16.8125 14.0007 16.7321 13.813 16.5417L12.8708 15.6001C12.6831 15.4071 12.6032 15.1781 12.6944 15.088Z" stroke="black" stroke-width="0.640001" stroke-linecap="round" stroke-linejoin="round"/>
<path d="M13.6068 2.4751L7.3709 8.711L13.2212 14.5613L19.4572 8.32538L13.6068 2.4751Z" stroke="black" stroke-width="0.640001" stroke-linecap="round" stroke-linejoin="round"/>
<path d="M1.00394 17.7558L8.70996 10.0498L10.7196 12.0595L3.01358 19.7654C2.88161 19.8974 2.72493 20.0021 2.55249 20.0735C2.38005 20.1448 2.19524 20.1816 2.00861 20.1815C1.82197 20.1814 1.63718 20.1446 1.4648 20.073C1.29241 20.0015 1.13581 19.8967 1.00394 19.7647C0.737549 19.4983 0.587891 19.137 0.587891 18.7602C0.587891 18.3835 0.737549 18.0222 1.00394 17.7558Z" stroke="black" stroke-width="0.640001" stroke-linecap="round" stroke-linejoin="round"/>
</svg>
