<svg width="23" height="21" viewBox="0 0 23 21" fill="none" xmlns="http://www.w3.org/2000/svg">
<path d="M20.0437 3.34214C19.5552 2.85349 18.9753 2.46585 18.337 2.20138C17.6988 1.93691 17.0146 1.80078 16.3237 1.80078C15.6328 1.80078 14.9487 1.93691 14.3104 2.20138C13.6721 2.46585 13.0922 2.85349 12.6038 3.34214L11.5901 4.35581L10.5764 3.34214C9.58985 2.35555 8.25175 1.80129 6.8565 1.80129C5.46125 1.80129 4.12315 2.35555 3.13656 3.34214C2.14996 4.32874 1.5957 5.66684 1.5957 7.06209C1.5957 8.45734 2.14996 9.79544 3.13656 10.782L4.15022 11.7957L11.5901 19.2356L19.03 11.7957L20.0437 10.782C20.5323 10.2936 20.92 9.71369 21.1844 9.07541C21.4489 8.43713 21.585 7.75299 21.585 7.06209C21.585 6.37119 21.4489 5.68705 21.1844 5.04877C20.92 4.41049 20.5323 3.83057 20.0437 3.34214Z" stroke="#111010" stroke-width="2" stroke-linecap="round" stroke-linejoin="round"/>
</svg>
