<svg width="24" height="24" viewBox="0 0 24 24" fill="none" xmlns="http://www.w3.org/2000/svg">
<g clip-path="url(#clip0_2959_17703)">
<path d="M20.0437 5.34214C19.5552 4.85349 18.9753 4.46585 18.337 4.20138C17.6988 3.93691 17.0146 3.80078 16.3237 3.80078C15.6328 3.80078 14.9487 3.93691 14.3104 4.20138C13.6721 4.46585 13.0922 4.85349 12.6038 5.34214L11.5901 6.35581L10.5764 5.34214C9.58985 4.35555 8.25175 3.80129 6.8565 3.80129C5.46125 3.80129 4.12315 4.35555 3.13656 5.34214C2.14996 6.32874 1.5957 7.66684 1.5957 9.06209C1.5957 10.4573 2.14996 11.7954 3.13656 12.782L4.15022 13.7957L11.5901 21.2356L19.03 13.7957L20.0437 12.782C20.5323 12.2936 20.92 11.7137 21.1844 11.0754C21.4489 10.4371 21.585 9.75299 21.585 9.06209C21.585 8.37119 21.4489 7.68705 21.1844 7.04877C20.92 6.41049 20.5323 5.83057 20.0437 5.34214Z" stroke="white" stroke-width="2" stroke-linecap="round" stroke-linejoin="round"/>
</g>
<defs>
<clipPath id="clip0_2959_17703">
<rect width="22.9508" height="22.9508" fill="white" transform="translate(0.115234 0.933594)"/>
</clipPath>
</defs>
</svg>
