<?xml version="1.0" encoding="UTF-8"?>
<svg data-bbox="0.494 0.598 30.989 26.357" xmlns="http://www.w3.org/2000/svg" viewBox="0 0 32 27" height="27" width="32" data-type="ugc">
    <g>
        <path stroke-width="1.5" stroke="#31356E" d="M1 16.484v-5.435c0-.777.28-1.521.779-2.07.499-.549 1.175-.857 1.88-.857h3.856c.26 0 .514-.084.731-.242l7.977-5.79a1.231 1.231 0 0 1 1.362-.066c.212.126.388.312.511.539.123.226.188.486.188.75V24.22c0 .264-.065.523-.188.75-.123.227-.3.412-.51.538a1.231 1.231 0 0 1-1.363-.066l-7.977-5.79a1.244 1.244 0 0 0-.731-.241H3.659c-.705 0-1.381-.309-1.88-.858A3.083 3.083 0 0 1 1 16.483Z" fill="none"/>
        <path stroke-linejoin="round" stroke-linecap="round" stroke-width="1.5" stroke="#31356E" d="M22.938 7.181s1.994 2.196 1.994 5.854c0 3.659-1.994 5.854-1.994 5.854M26.925 2.79s3.325 3.66 3.325 10.245c0 6.586-3.324 10.244-3.324 10.244" fill="none"/>
        <path fill="#31356E" d="M.773 25.622a.75.75 0 1 0 .965 1.148l-.965-1.148ZM30.517.598.773 25.622l.965 1.148L31.483 1.746 30.517.598Z"/>
    </g>
</svg>
