<?xml version="1.0" encoding="UTF-8"?>
<svg data-bbox="5 0.85 29.25 23.833" xmlns="http://www.w3.org/2000/svg" viewBox="0 0 39 34" height="34" width="39" data-type="ugc">
    <g>
        <g filter="url(#ae3b7850-d32f-40e8-9e36-7cee743462e3)">
            <path stroke-width="1.5" stroke="#31356E" d="M5 15.484v-5.435c0-.777.28-1.521.779-2.07.499-.549 1.175-.857 1.88-.857h3.856c.26 0 .514-.084.731-.242l7.977-5.79a1.231 1.231 0 0 1 1.362-.066c.212.126.388.312.511.539.123.226.188.486.188.75V23.22c0 .264-.065.523-.188.75-.123.227-.3.412-.51.538a1.231 1.231 0 0 1-1.363-.066l-7.977-5.79a1.244 1.244 0 0 0-.731-.241H7.659c-.705 0-1.381-.309-1.88-.858A3.083 3.083 0 0 1 5 15.483Z" fill="none"/>
            <path stroke-linejoin="round" stroke-linecap="round" stroke-width="1.5" stroke="#31356E" d="M26.938 6.18s1.994 2.195 1.994 5.853c0 3.659-1.994 5.854-1.994 5.854m3.988-16.098s3.324 3.659 3.324 10.244c0 6.586-3.324 10.244-3.324 10.244" fill="none"/>
        </g>
        <defs fill="none">
            <filter color-interpolation-filters="sRGB" filterUnits="userSpaceOnUse" height="33.334" width="38.75" y=".1" x=".25" id="ae3b7850-d32f-40e8-9e36-7cee743462e3">
                <feFlood result="BackgroundImageFix" flood-opacity="0"/>
                <feColorMatrix result="hardAlpha" values="0 0 0 0 0 0 0 0 0 0 0 0 0 0 0 0 0 0 127 0" in="SourceAlpha"/>
                <feOffset dy="4"/>
                <feGaussianBlur stdDeviation="2"/>
                <feComposite operator="out" in2="hardAlpha"/>
                <feColorMatrix values="0 0 0 0 0 0 0 0 0 0 0 0 0 0 0 0 0 0 0.25 0"/>
                <feBlend result="effect1_dropShadow_3701_20724" in2="BackgroundImageFix"/>
                <feBlend result="shape" in2="effect1_dropShadow_3701_20724" in="SourceGraphic"/>
            </filter>
        </defs>
    </g>
</svg>
