<svg width="24" height="24" viewBox="0 0 24 24" fill="none" xmlns="http://www.w3.org/2000/svg">
<path d="M11.8089 10.6636C11.5049 10.6636 11.2133 10.7843 10.9984 10.9993C10.7834 11.2142 10.6627 11.5058 10.6627 11.8098V15.2484C10.6627 15.5524 10.7834 15.8439 10.9984 16.0589C11.2133 16.2738 11.5049 16.3946 11.8089 16.3946C12.1129 16.3946 12.4044 16.2738 12.6194 16.0589C12.8343 15.8439 12.9551 15.5524 12.9551 15.2484V11.8098C12.9551 11.5058 12.8343 11.2142 12.6194 10.9993C12.4044 10.7843 12.1129 10.6636 11.8089 10.6636ZM11.8089 7.22492C11.5822 7.22492 11.3606 7.29214 11.1721 7.41809C10.9836 7.54404 10.8367 7.72305 10.7499 7.93249C10.6632 8.14194 10.6405 8.3724 10.6847 8.59475C10.7289 8.81709 10.8381 9.02132 10.9984 9.18162C11.1587 9.34192 11.3629 9.45109 11.5853 9.49532C11.8076 9.53954 12.0381 9.51685 12.2475 9.43009C12.4569 9.34334 12.636 9.19643 12.7619 9.00793C12.8879 8.81944 12.9551 8.59783 12.9551 8.37113C12.9551 8.06714 12.8343 7.77559 12.6194 7.56064C12.4044 7.34568 12.1129 7.22492 11.8089 7.22492ZM11.8089 0.347656C10.3036 0.347656 8.81316 0.644132 7.42251 1.22016C6.03186 1.79618 4.76829 2.64047 3.70393 3.70483C1.55437 5.85439 0.346761 8.76982 0.346761 11.8098C0.33674 14.4565 1.25318 17.0233 2.9372 19.0653L0.644775 21.3577C0.48573 21.5189 0.37799 21.7236 0.335152 21.9459C0.292313 22.1683 0.316295 22.3983 0.404071 22.6071C0.499273 22.8133 0.653606 22.9866 0.847479 23.105C1.04135 23.2233 1.26602 23.2814 1.49297 23.2719H11.8089C14.8488 23.2719 17.7642 22.0643 19.9138 19.9147C22.0634 17.7651 23.271 14.8497 23.271 11.8098C23.271 8.76982 22.0634 5.85439 19.9138 3.70483C17.7642 1.55527 14.8488 0.347656 11.8089 0.347656ZM11.8089 20.9794H4.25534L5.32132 19.9135C5.42962 19.8073 5.51578 19.6807 5.5748 19.541C5.63383 19.4013 5.66455 19.2513 5.66518 19.0997C5.66087 18.7973 5.53728 18.5089 5.32132 18.2973C3.82045 16.7981 2.88582 14.8249 2.67665 12.7139C2.46749 10.6029 2.99673 8.48461 4.17422 6.72004C5.3517 4.95547 7.10458 3.65374 9.1342 3.03664C11.1638 2.41953 13.3446 2.52523 15.3051 3.33573C17.2655 4.14622 18.8843 5.61137 19.8856 7.48155C20.8869 9.35172 21.2088 11.5112 20.7965 13.5921C20.3841 15.673 19.263 17.5466 17.6242 18.8936C15.9854 20.2406 13.9302 20.9778 11.8089 20.9794Z" fill="#31356E"/>
</svg>
